<mxfile host="app.diagrams.net" modified="2023-12-28T12:16:24.036Z" agent="Mozilla/5.0 (Windows NT 10.0; Win64; x64) AppleWebKit/537.36 (KHTML, like Gecko) Chrome/120.0.0.0 Safari/537.36 Edg/120.0.0.0" version="22.1.15" etag="f-G_z43OLjCEf2VKzYYv" type="github">
  <diagram name="페이지-1" id="tAzbLMrn59betzb5J2N_">
    <mxGraphModel>
      <root>
        <mxCell id="0" />
        <mxCell id="1" parent="0" />
      </root>
    </mxGraphModel>
  </diagram>
</mxfile>
